<svg xmlns="http://www.w3.org/2000/svg" width="1024" height="1024" viewBox="0 0 1024 1024">
  <defs>
    <linearGradient id="bg" x1="0" y1="0" x2="0" y2="1">
      <stop offset="0"    stop-color="#48484C"/>
      <stop offset="0.42" stop-color="#2A2A2D"/>
      <stop offset="1"    stop-color="#121214"/>
    </linearGradient>
    <linearGradient id="rim" x1="0" y1="0" x2="0" y2="1">
      <stop offset="0"    stop-color="#8A8A90" stop-opacity="0.9"/>
      <stop offset="0.18" stop-color="#6A6A70" stop-opacity="0.35"/>
      <stop offset="0.4"  stop-color="#000000" stop-opacity="0"/>
      <stop offset="0.85" stop-color="#000000" stop-opacity="0"/>
      <stop offset="1"    stop-color="#000000" stop-opacity="0.5"/>
    </linearGradient>
    <radialGradient id="vig" cx="0.5" cy="0.36" r="0.72">
      <stop offset="0"    stop-color="#000000" stop-opacity="0"/>
      <stop offset="0.72" stop-color="#000000" stop-opacity="0"/>
      <stop offset="1"    stop-color="#000000" stop-opacity="0.55"/>
    </radialGradient>
    <linearGradient id="blue" x1="0" y1="0" x2="0" y2="1">
      <stop offset="0" stop-color="#54ABFF"/>
      <stop offset="0.5" stop-color="#0A84FF"/>
      <stop offset="1" stop-color="#005BD0"/>
    </linearGradient>
    <radialGradient id="badge" cx="0.4" cy="0.32" r="0.85">
      <stop offset="0" stop-color="#34343A"/>
      <stop offset="1" stop-color="#1C1C1F"/>
    </radialGradient>
    <filter id="drop" x="-25%" y="-25%" width="150%" height="170%">
      <feDropShadow dx="0" dy="30" stdDeviation="34" flood-color="#000" flood-opacity="0.5"/>
    </filter>
    <filter id="lift" x="-40%" y="-40%" width="180%" height="180%">
      <feDropShadow dx="0" dy="10" stdDeviation="14" flood-color="#000" flood-opacity="0.45"/>
    </filter>
  </defs>

  <path d="M 952.00 512.00 L 951.94 614.48 L 951.76 647.20 L 951.46 670.97 L 951.03 690.30 L 950.49 706.86 L 949.83 721.50 L 949.04 734.69 L 948.13 746.75 L 947.10 757.88 L 945.94 768.24 L 944.66 777.94 L 943.26 787.07 L 941.73 795.69 L 940.07 803.87 L 938.28 811.63 L 936.37 819.03 L 934.33 826.08 L 932.15 832.83 L 929.84 839.28 L 927.40 845.46 L 924.82 851.38 L 922.10 857.06 L 919.24 862.51 L 916.24 867.75 L 913.09 872.77 L 909.79 877.60 L 906.34 882.23 L 902.73 886.68 L 898.97 890.95 L 895.04 895.04 L 890.95 898.97 L 886.68 902.73 L 882.23 906.34 L 877.60 909.79 L 872.77 913.09 L 867.75 916.24 L 862.51 919.24 L 857.06 922.10 L 851.38 924.82 L 845.46 927.40 L 839.28 929.84 L 832.83 932.15 L 826.08 934.33 L 819.03 936.37 L 811.63 938.28 L 803.87 940.07 L 795.69 941.73 L 787.07 943.26 L 777.94 944.66 L 768.24 945.94 L 757.88 947.10 L 746.75 948.13 L 734.69 949.04 L 721.50 949.83 L 706.86 950.49 L 690.30 951.03 L 670.97 951.46 L 647.20 951.76 L 614.48 951.94 L 512.00 952.00 L 409.52 951.94 L 376.80 951.76 L 353.03 951.46 L 333.70 951.03 L 317.14 950.49 L 302.50 949.83 L 289.31 949.04 L 277.25 948.13 L 266.12 947.10 L 255.76 945.94 L 246.06 944.66 L 236.93 943.26 L 228.31 941.73 L 220.13 940.07 L 212.37 938.28 L 204.97 936.37 L 197.92 934.33 L 191.17 932.15 L 184.72 929.84 L 178.54 927.40 L 172.62 924.82 L 166.94 922.10 L 161.49 919.24 L 156.25 916.24 L 151.23 913.09 L 146.40 909.79 L 141.77 906.34 L 137.32 902.73 L 133.05 898.97 L 128.96 895.04 L 125.03 890.95 L 121.27 886.68 L 117.66 882.23 L 114.21 877.60 L 110.91 872.77 L 107.76 867.75 L 104.76 862.51 L 101.90 857.06 L 99.18 851.38 L 96.60 845.46 L 94.16 839.28 L 91.85 832.83 L 89.67 826.08 L 87.63 819.03 L 85.72 811.63 L 83.93 803.87 L 82.27 795.69 L 80.74 787.07 L 79.34 777.94 L 78.06 768.24 L 76.90 757.88 L 75.87 746.75 L 74.96 734.69 L 74.17 721.50 L 73.51 706.86 L 72.97 690.30 L 72.54 670.97 L 72.24 647.20 L 72.06 614.48 L 72.00 512.00 L 72.06 409.52 L 72.24 376.80 L 72.54 353.03 L 72.97 333.70 L 73.51 317.14 L 74.17 302.50 L 74.96 289.31 L 75.87 277.25 L 76.90 266.12 L 78.06 255.76 L 79.34 246.06 L 80.74 236.93 L 82.27 228.31 L 83.93 220.13 L 85.72 212.37 L 87.63 204.97 L 89.67 197.92 L 91.85 191.17 L 94.16 184.72 L 96.60 178.54 L 99.18 172.62 L 101.90 166.94 L 104.76 161.49 L 107.76 156.25 L 110.91 151.23 L 114.21 146.40 L 117.66 141.77 L 121.27 137.32 L 125.03 133.05 L 128.96 128.96 L 133.05 125.03 L 137.32 121.27 L 141.77 117.66 L 146.40 114.21 L 151.23 110.91 L 156.25 107.76 L 161.49 104.76 L 166.94 101.90 L 172.62 99.18 L 178.54 96.60 L 184.72 94.16 L 191.17 91.85 L 197.92 89.67 L 204.97 87.63 L 212.37 85.72 L 220.13 83.93 L 228.31 82.27 L 236.93 80.74 L 246.06 79.34 L 255.76 78.06 L 266.12 76.90 L 277.25 75.87 L 289.31 74.96 L 302.50 74.17 L 317.14 73.51 L 333.70 72.97 L 353.03 72.54 L 376.80 72.24 L 409.52 72.06 L 512.00 72.00 L 614.48 72.06 L 647.20 72.24 L 670.97 72.54 L 690.30 72.97 L 706.86 73.51 L 721.50 74.17 L 734.69 74.96 L 746.75 75.87 L 757.88 76.90 L 768.24 78.06 L 777.94 79.34 L 787.07 80.74 L 795.69 82.27 L 803.87 83.93 L 811.63 85.72 L 819.03 87.63 L 826.08 89.67 L 832.83 91.85 L 839.28 94.16 L 845.46 96.60 L 851.38 99.18 L 857.06 101.90 L 862.51 104.76 L 867.75 107.76 L 872.77 110.91 L 877.60 114.21 L 882.23 117.66 L 886.68 121.27 L 890.95 125.03 L 895.04 128.96 L 898.97 133.05 L 902.73 137.32 L 906.34 141.77 L 909.79 146.40 L 913.09 151.23 L 916.24 156.25 L 919.24 161.49 L 922.10 166.94 L 924.82 172.62 L 927.40 178.54 L 929.84 184.72 L 932.15 191.17 L 934.33 197.92 L 936.37 204.97 L 938.28 212.37 L 940.07 220.13 L 941.73 228.31 L 943.26 236.93 L 944.66 246.06 L 945.94 255.76 L 947.10 266.12 L 948.13 277.25 L 949.04 289.31 L 949.83 302.50 L 950.49 317.14 L 951.03 333.70 L 951.46 353.03 L 951.76 376.80 L 951.94 409.52 L 952.00 512.00 Z" fill="url(#bg)" filter="url(#drop)"/>
  <path d="M 952.00 512.00 L 951.94 614.48 L 951.76 647.20 L 951.46 670.97 L 951.03 690.30 L 950.49 706.86 L 949.83 721.50 L 949.04 734.69 L 948.13 746.75 L 947.10 757.88 L 945.94 768.24 L 944.66 777.94 L 943.26 787.07 L 941.73 795.69 L 940.07 803.87 L 938.28 811.63 L 936.37 819.03 L 934.33 826.08 L 932.15 832.83 L 929.84 839.28 L 927.40 845.46 L 924.82 851.38 L 922.10 857.06 L 919.24 862.51 L 916.24 867.75 L 913.09 872.77 L 909.79 877.60 L 906.34 882.23 L 902.73 886.68 L 898.97 890.95 L 895.04 895.04 L 890.95 898.97 L 886.68 902.73 L 882.23 906.34 L 877.60 909.79 L 872.77 913.09 L 867.75 916.24 L 862.51 919.24 L 857.06 922.10 L 851.38 924.82 L 845.46 927.40 L 839.28 929.84 L 832.83 932.15 L 826.08 934.33 L 819.03 936.37 L 811.63 938.28 L 803.87 940.07 L 795.69 941.73 L 787.07 943.26 L 777.94 944.66 L 768.24 945.94 L 757.88 947.10 L 746.75 948.13 L 734.69 949.04 L 721.50 949.83 L 706.86 950.49 L 690.30 951.03 L 670.97 951.46 L 647.20 951.76 L 614.48 951.94 L 512.00 952.00 L 409.52 951.94 L 376.80 951.76 L 353.03 951.46 L 333.70 951.03 L 317.14 950.49 L 302.50 949.83 L 289.31 949.04 L 277.25 948.13 L 266.12 947.10 L 255.76 945.94 L 246.06 944.66 L 236.93 943.26 L 228.31 941.73 L 220.13 940.07 L 212.37 938.28 L 204.97 936.37 L 197.92 934.33 L 191.17 932.15 L 184.72 929.84 L 178.54 927.40 L 172.62 924.82 L 166.94 922.10 L 161.49 919.24 L 156.25 916.24 L 151.23 913.09 L 146.40 909.79 L 141.77 906.34 L 137.32 902.73 L 133.05 898.97 L 128.96 895.04 L 125.03 890.95 L 121.27 886.68 L 117.66 882.23 L 114.21 877.60 L 110.91 872.77 L 107.76 867.75 L 104.76 862.51 L 101.90 857.06 L 99.18 851.38 L 96.60 845.46 L 94.16 839.28 L 91.85 832.83 L 89.67 826.08 L 87.63 819.03 L 85.72 811.63 L 83.93 803.87 L 82.27 795.69 L 80.74 787.07 L 79.34 777.94 L 78.06 768.24 L 76.90 757.88 L 75.87 746.75 L 74.96 734.69 L 74.17 721.50 L 73.51 706.86 L 72.97 690.30 L 72.54 670.97 L 72.24 647.20 L 72.06 614.48 L 72.00 512.00 L 72.06 409.52 L 72.24 376.80 L 72.54 353.03 L 72.97 333.70 L 73.51 317.14 L 74.17 302.50 L 74.96 289.31 L 75.87 277.25 L 76.90 266.12 L 78.06 255.76 L 79.34 246.06 L 80.74 236.93 L 82.27 228.31 L 83.93 220.13 L 85.72 212.37 L 87.63 204.97 L 89.67 197.92 L 91.85 191.17 L 94.16 184.72 L 96.60 178.54 L 99.18 172.62 L 101.90 166.94 L 104.76 161.49 L 107.76 156.25 L 110.91 151.23 L 114.21 146.40 L 117.66 141.77 L 121.27 137.32 L 125.03 133.05 L 128.96 128.96 L 133.05 125.03 L 137.32 121.27 L 141.77 117.66 L 146.40 114.21 L 151.23 110.91 L 156.25 107.76 L 161.49 104.76 L 166.94 101.90 L 172.62 99.18 L 178.54 96.60 L 184.72 94.16 L 191.17 91.85 L 197.92 89.67 L 204.97 87.63 L 212.37 85.72 L 220.13 83.93 L 228.31 82.27 L 236.93 80.74 L 246.06 79.34 L 255.76 78.06 L 266.12 76.90 L 277.25 75.87 L 289.31 74.96 L 302.50 74.17 L 317.14 73.51 L 333.70 72.97 L 353.03 72.54 L 376.80 72.24 L 409.52 72.06 L 512.00 72.00 L 614.48 72.06 L 647.20 72.24 L 670.97 72.54 L 690.30 72.97 L 706.86 73.51 L 721.50 74.17 L 734.69 74.96 L 746.75 75.87 L 757.88 76.90 L 768.24 78.06 L 777.94 79.34 L 787.07 80.74 L 795.69 82.27 L 803.87 83.93 L 811.63 85.72 L 819.03 87.63 L 826.08 89.67 L 832.83 91.85 L 839.28 94.16 L 845.46 96.60 L 851.38 99.18 L 857.06 101.90 L 862.51 104.76 L 867.75 107.76 L 872.77 110.91 L 877.60 114.21 L 882.23 117.66 L 886.68 121.27 L 890.95 125.03 L 895.04 128.96 L 898.97 133.05 L 902.73 137.32 L 906.34 141.77 L 909.79 146.40 L 913.09 151.23 L 916.24 156.25 L 919.24 161.49 L 922.10 166.94 L 924.82 172.62 L 927.40 178.54 L 929.84 184.72 L 932.15 191.17 L 934.33 197.92 L 936.37 204.97 L 938.28 212.37 L 940.07 220.13 L 941.73 228.31 L 943.26 236.93 L 944.66 246.06 L 945.94 255.76 L 947.10 266.12 L 948.13 277.25 L 949.04 289.31 L 949.83 302.50 L 950.49 317.14 L 951.03 333.70 L 951.46 353.03 L 951.76 376.80 L 951.94 409.52 L 952.00 512.00 Z" fill="url(#vig)"/>
  <path d="M 952.00 512.00 L 951.94 614.48 L 951.76 647.20 L 951.46 670.97 L 951.03 690.30 L 950.49 706.86 L 949.83 721.50 L 949.04 734.69 L 948.13 746.75 L 947.10 757.88 L 945.94 768.24 L 944.66 777.94 L 943.26 787.07 L 941.73 795.69 L 940.07 803.87 L 938.28 811.63 L 936.37 819.03 L 934.33 826.08 L 932.15 832.83 L 929.84 839.28 L 927.40 845.46 L 924.82 851.38 L 922.10 857.06 L 919.24 862.51 L 916.24 867.75 L 913.09 872.77 L 909.79 877.60 L 906.34 882.23 L 902.73 886.68 L 898.97 890.95 L 895.04 895.04 L 890.95 898.97 L 886.68 902.73 L 882.23 906.34 L 877.60 909.79 L 872.77 913.09 L 867.75 916.24 L 862.51 919.24 L 857.06 922.10 L 851.38 924.82 L 845.46 927.40 L 839.28 929.84 L 832.83 932.15 L 826.08 934.33 L 819.03 936.37 L 811.63 938.28 L 803.87 940.07 L 795.69 941.73 L 787.07 943.26 L 777.94 944.66 L 768.24 945.94 L 757.88 947.10 L 746.75 948.13 L 734.69 949.04 L 721.50 949.83 L 706.86 950.49 L 690.30 951.03 L 670.97 951.46 L 647.20 951.76 L 614.48 951.94 L 512.00 952.00 L 409.52 951.94 L 376.80 951.76 L 353.03 951.46 L 333.70 951.03 L 317.14 950.49 L 302.50 949.83 L 289.31 949.04 L 277.25 948.13 L 266.12 947.10 L 255.76 945.94 L 246.06 944.66 L 236.93 943.26 L 228.31 941.73 L 220.13 940.07 L 212.37 938.28 L 204.97 936.37 L 197.92 934.33 L 191.17 932.15 L 184.72 929.84 L 178.54 927.40 L 172.62 924.82 L 166.94 922.10 L 161.49 919.24 L 156.25 916.24 L 151.23 913.09 L 146.40 909.79 L 141.77 906.34 L 137.32 902.73 L 133.05 898.97 L 128.96 895.04 L 125.03 890.95 L 121.27 886.68 L 117.66 882.23 L 114.21 877.60 L 110.91 872.77 L 107.76 867.75 L 104.76 862.51 L 101.90 857.06 L 99.18 851.38 L 96.60 845.46 L 94.16 839.28 L 91.85 832.83 L 89.67 826.08 L 87.63 819.03 L 85.72 811.63 L 83.93 803.87 L 82.27 795.69 L 80.74 787.07 L 79.34 777.94 L 78.06 768.24 L 76.90 757.88 L 75.87 746.75 L 74.96 734.69 L 74.17 721.50 L 73.51 706.86 L 72.97 690.30 L 72.54 670.97 L 72.24 647.20 L 72.06 614.48 L 72.00 512.00 L 72.06 409.52 L 72.24 376.80 L 72.54 353.03 L 72.97 333.70 L 73.51 317.14 L 74.17 302.50 L 74.96 289.31 L 75.87 277.25 L 76.90 266.12 L 78.06 255.76 L 79.34 246.06 L 80.74 236.93 L 82.27 228.31 L 83.93 220.13 L 85.72 212.37 L 87.63 204.97 L 89.67 197.92 L 91.85 191.17 L 94.16 184.72 L 96.60 178.54 L 99.18 172.62 L 101.90 166.94 L 104.76 161.49 L 107.76 156.25 L 110.91 151.23 L 114.21 146.40 L 117.66 141.77 L 121.27 137.32 L 125.03 133.05 L 128.96 128.96 L 133.05 125.03 L 137.32 121.27 L 141.77 117.66 L 146.40 114.21 L 151.23 110.91 L 156.25 107.76 L 161.49 104.76 L 166.94 101.90 L 172.62 99.18 L 178.54 96.60 L 184.72 94.16 L 191.17 91.85 L 197.92 89.67 L 204.97 87.63 L 212.37 85.72 L 220.13 83.93 L 228.31 82.27 L 236.93 80.74 L 246.06 79.34 L 255.76 78.06 L 266.12 76.90 L 277.25 75.87 L 289.31 74.96 L 302.50 74.17 L 317.14 73.51 L 333.70 72.97 L 353.03 72.54 L 376.80 72.24 L 409.52 72.06 L 512.00 72.00 L 614.48 72.06 L 647.20 72.24 L 670.97 72.54 L 690.30 72.97 L 706.86 73.51 L 721.50 74.17 L 734.69 74.96 L 746.75 75.87 L 757.88 76.90 L 768.24 78.06 L 777.94 79.34 L 787.07 80.74 L 795.69 82.27 L 803.87 83.93 L 811.63 85.72 L 819.03 87.63 L 826.08 89.67 L 832.83 91.85 L 839.28 94.16 L 845.46 96.60 L 851.38 99.18 L 857.06 101.90 L 862.51 104.76 L 867.75 107.76 L 872.77 110.91 L 877.60 114.21 L 882.23 117.66 L 886.68 121.27 L 890.95 125.03 L 895.04 128.96 L 898.97 133.05 L 902.73 137.32 L 906.34 141.77 L 909.79 146.40 L 913.09 151.23 L 916.24 156.25 L 919.24 161.49 L 922.10 166.94 L 924.82 172.62 L 927.40 178.54 L 929.84 184.72 L 932.15 191.17 L 934.33 197.92 L 936.37 204.97 L 938.28 212.37 L 940.07 220.13 L 941.73 228.31 L 943.26 236.93 L 944.66 246.06 L 945.94 255.76 L 947.10 266.12 L 948.13 277.25 L 949.04 289.31 L 949.83 302.50 L 950.49 317.14 L 951.03 333.70 L 951.46 353.03 L 951.76 376.80 L 951.94 409.52 L 952.00 512.00 Z" fill="none" stroke="url(#rim)" stroke-width="5"/>

  <g filter="url(#lift)">
    <path d="M 713.54 503.55 L 777.77 508.77 L 777.77 611.23 L 713.54 616.45 L 682.13 692.29 L 723.85 741.40 L 651.40 813.85 L 602.29 772.13 L 526.45 803.54 L 521.23 867.77 L 418.77 867.77 L 413.55 803.54 L 337.71 772.13 L 288.60 813.85 L 216.15 741.40 L 257.87 692.29 L 226.46 616.45 L 162.23 611.23 L 162.23 508.77 L 226.46 503.55 L 257.87 427.71 L 216.15 378.60 L 288.60 306.15 L 337.71 347.87 L 413.55 316.46 L 418.77 252.23 L 521.23 252.23 L 526.45 316.46 L 602.29 347.87 L 651.40 306.15 L 723.85 378.60 L 682.13 427.71 Z" fill="url(#blue)" stroke="#0050C0" stroke-width="8" stroke-linejoin="round"/>
    <circle cx="470" cy="560" r="116" fill="url(#bg)"/>
    <circle cx="470" cy="560" r="116" fill="none" stroke="#0050C0" stroke-width="8"/>
    <path d="M 713.54 503.55 L 777.77 508.77 L 777.77 611.23 L 713.54 616.45 L 682.13 692.29 L 723.85 741.40 L 651.40 813.85 L 602.29 772.13 L 526.45 803.54 L 521.23 867.77 L 418.77 867.77 L 413.55 803.54 L 337.71 772.13 L 288.60 813.85 L 216.15 741.40 L 257.87 692.29 L 226.46 616.45 L 162.23 611.23 L 162.23 508.77 L 226.46 503.55 L 257.87 427.71 L 216.15 378.60 L 288.60 306.15 L 337.71 347.87 L 413.55 316.46 L 418.77 252.23 L 521.23 252.23 L 526.45 316.46 L 602.29 347.87 L 651.40 306.15 L 723.85 378.60 L 682.13 427.71 Z" fill="none" stroke="#7FC0FF" stroke-width="6" stroke-linejoin="round" stroke-opacity="0.5"/>
  </g>

  <g filter="url(#lift)">
    <circle cx="712" cy="312" r="172" fill="url(#badge)" stroke="#0A84FF" stroke-width="16"/>
    <path d="M 795.2 323.7 A 84 84 0 0 1 634.1 343.5" fill="none" stroke="#0A84FF" stroke-width="44" stroke-linecap="butt"/><path d="M 628.8 300.3 A 84 84 0 0 1 789.9 280.5" fill="none" stroke="#0A84FF" stroke-width="44" stroke-linecap="butt"/>
    <path d="M 603.4 267.4 L 578.5 365.9 L 689.7 321.0 Z" fill="#0A84FF"/><path d="M 820.6 356.6 L 845.5 258.1 L 734.3 303.0 Z" fill="#0A84FF"/>
  </g>
</svg>